<mxfile host="app.diagrams.net" modified="2023-07-07T03:40:18.354Z" agent="Mozilla/5.0 (Macintosh; Intel Mac OS X 10_15_7) AppleWebKit/605.1.15 (KHTML, like Gecko) Version/16.3 Safari/605.1.15" version="21.6.1" etag="pR_RLk34SqtIoa42zNQj" type="github">
  <diagram name="第 1 页" id="G1h4Eu-MeylpFZX0GpHy">
    <mxGraphModel>
      <root>
        <mxCell id="0" />
        <mxCell id="1" parent="0" />
      </root>
    </mxGraphModel>
  </diagram>
</mxfile>
